name rise37.2698peak67.6939fall79.5734.mot
datacolumns 19
datarows 24
range 14.36828300000000 14.40661700000000
endheader
time	ground_force1_vx	ground_force1_vy	ground_force1_vz	ground_force1_px	ground_force1_py	ground_force1_pz	ground_force2_vx	ground_force2_vy	ground_force2_vz	ground_force2_px	ground_force2_py	ground_force2_pz	ground_torque1_x	ground_torque1_y	ground_torque1_z	ground_torque2_x	ground_torque2_y	ground_torque2_z	
14.36828300000000	12.59342900000000	712.51906099999997	34.50994400000000	0.23033700000000	0.00000000000000	0.09458900000000	0.00000000000000	0.00000000000000	0.00000000000000	0.00000000000000	0.00000000000000	0.00000000000000	0.00000000000000	14.78171200000000	0.00000000000000	0.00000000000000	0.00000000000000	0.00000000000000	
14.36994800000000	12.13534800000000	714.16692999999998	34.45861700000000	0.22936300000000	0.00000000000000	0.09451900000000	0.00000000000000	0.00000000000000	0.00000000000000	0.00000000000000	0.00000000000000	0.00000000000000	0.00000000000000	14.83659300000000	0.00000000000000	0.00000000000000	0.00000000000000	0.00000000000000	
14.37161500000000	11.66979600000000	715.85145399999999	34.41242300000000	0.22836800000000	0.00000000000000	0.09445000000000	0.00000000000000	0.00000000000000	0.00000000000000	0.00000000000000	0.00000000000000	0.00000000000000	0.00000000000000	14.89460600000000	0.00000000000000	0.00000000000000	0.00000000000000	0.00000000000000	
14.37328000000000	11.19693200000000	717.57047200000000	34.37132600000000	0.22735400000000	0.00000000000000	0.09438300000000	0.00000000000000	0.00000000000000	0.00000000000000	0.00000000000000	0.00000000000000	0.00000000000000	0.00000000000000	14.95567500000000	0.00000000000000	0.00000000000000	0.00000000000000	0.00000000000000	
14.37494700000000	10.71695200000000	719.32179499999995	34.33528500000000	0.22632100000000	0.00000000000000	0.09431900000000	0.00000000000000	0.00000000000000	0.00000000000000	0.00000000000000	0.00000000000000	0.00000000000000	0.00000000000000	15.01971600000000	0.00000000000000	0.00000000000000	0.00000000000000	0.00000000000000	
14.37661500000000	10.23008400000000	721.10321099999999	34.30425700000000	0.22527200000000	0.00000000000000	0.09425600000000	0.00000000000000	0.00000000000000	0.00000000000000	0.00000000000000	0.00000000000000	0.00000000000000	0.00000000000000	15.08664300000000	0.00000000000000	0.00000000000000	0.00000000000000	0.00000000000000	
14.37827800000000	9.73659100000000	722.91248199999995	34.27819700000000	0.22420800000000	0.00000000000000	0.09419500000000	0.00000000000000	0.00000000000000	0.00000000000000	0.00000000000000	0.00000000000000	0.00000000000000	0.00000000000000	15.15636100000000	0.00000000000000	0.00000000000000	0.00000000000000	0.00000000000000	
14.37995200000000	9.23676500000000	724.74735599999997	34.25705500000000	0.22313000000000	0.00000000000000	0.09413600000000	0.00000000000000	0.00000000000000	0.00000000000000	0.00000000000000	0.00000000000000	0.00000000000000	0.00000000000000	15.22877200000000	0.00000000000000	0.00000000000000	0.00000000000000	0.00000000000000	
14.38161300000000	8.73092800000000	726.60556299999996	34.24078200000000	0.22204000000000	0.00000000000000	0.09407800000000	0.00000000000000	0.00000000000000	0.00000000000000	0.00000000000000	0.00000000000000	0.00000000000000	0.00000000000000	15.30377100000000	0.00000000000000	0.00000000000000	0.00000000000000	0.00000000000000	
14.38328000000000	8.21942700000000	728.48482300000001	34.22932800000000	0.22094000000000	0.00000000000000	0.09402300000000	0.00000000000000	0.00000000000000	0.00000000000000	0.00000000000000	0.00000000000000	0.00000000000000	0.00000000000000	15.38124800000000	0.00000000000000	0.00000000000000	0.00000000000000	0.00000000000000	
14.38495100000000	7.70263700000000	730.38284599999997	34.22264000000000	0.21983200000000	0.00000000000000	0.09396800000000	0.00000000000000	0.00000000000000	0.00000000000000	0.00000000000000	0.00000000000000	0.00000000000000	0.00000000000000	15.46108900000000	0.00000000000000	0.00000000000000	0.00000000000000	0.00000000000000	
14.38661600000000	7.18095500000000	732.29733899999997	34.22066700000000	0.21871700000000	0.00000000000000	0.09391600000000	0.00000000000000	0.00000000000000	0.00000000000000	0.00000000000000	0.00000000000000	0.00000000000000	0.00000000000000	15.54317300000000	0.00000000000000	0.00000000000000	0.00000000000000	0.00000000000000	
14.38827800000000	6.65480000000000	734.22600899999998	34.22335700000000	0.21759800000000	0.00000000000000	0.09386400000000	0.00000000000000	0.00000000000000	0.00000000000000	0.00000000000000	0.00000000000000	0.00000000000000	0.00000000000000	15.62737600000000	0.00000000000000	0.00000000000000	0.00000000000000	0.00000000000000	
14.38994300000000	6.12461100000000	736.16656200000000	34.23066100000000	0.21647700000000	0.00000000000000	0.09381400000000	0.00000000000000	0.00000000000000	0.00000000000000	0.00000000000000	0.00000000000000	0.00000000000000	0.00000000000000	15.71357100000000	0.00000000000000	0.00000000000000	0.00000000000000	0.00000000000000	
14.39161000000000	5.59084000000000	738.11671300000000	34.24253000000000	0.21535500000000	0.00000000000000	0.09376600000000	0.00000000000000	0.00000000000000	0.00000000000000	0.00000000000000	0.00000000000000	0.00000000000000	0.00000000000000	15.80162300000000	0.00000000000000	0.00000000000000	0.00000000000000	0.00000000000000	
14.39328500000000	5.05396000000000	740.07418299999995	34.25891600000000	0.21423400000000	0.00000000000000	0.09371800000000	0.00000000000000	0.00000000000000	0.00000000000000	0.00000000000000	0.00000000000000	0.00000000000000	0.00000000000000	15.89139700000000	0.00000000000000	0.00000000000000	0.00000000000000	0.00000000000000	
14.39494800000000	4.51445200000000	742.03670599999998	34.27977600000000	0.21311600000000	0.00000000000000	0.09367200000000	0.00000000000000	0.00000000000000	0.00000000000000	0.00000000000000	0.00000000000000	0.00000000000000	0.00000000000000	15.98275100000000	0.00000000000000	0.00000000000000	0.00000000000000	0.00000000000000	
14.39661600000000	3.97281100000000	744.00203199999999	34.30506800000000	0.21200300000000	0.00000000000000	0.09362700000000	0.00000000000000	0.00000000000000	0.00000000000000	0.00000000000000	0.00000000000000	0.00000000000000	0.00000000000000	16.07554400000000	0.00000000000000	0.00000000000000	0.00000000000000	0.00000000000000	
14.39828100000000	3.42953800000000	745.96792900000003	34.33475400000000	0.21089600000000	0.00000000000000	0.09358300000000	0.00000000000000	0.00000000000000	0.00000000000000	0.00000000000000	0.00000000000000	0.00000000000000	0.00000000000000	16.16962700000000	0.00000000000000	0.00000000000000	0.00000000000000	0.00000000000000	
14.39994600000000	2.88514200000000	747.93218600000000	34.36880100000000	0.20979800000000	0.00000000000000	0.09353900000000	0.00000000000000	0.00000000000000	0.00000000000000	0.00000000000000	0.00000000000000	0.00000000000000	0.00000000000000	16.26485200000000	0.00000000000000	0.00000000000000	0.00000000000000	0.00000000000000	
14.40162600000000	2.34013700000000	749.89261499999998	34.40717900000000	0.20870900000000	0.00000000000000	0.09349700000000	0.00000000000000	0.00000000000000	0.00000000000000	0.00000000000000	0.00000000000000	0.00000000000000	0.00000000000000	16.36106700000000	0.00000000000000	0.00000000000000	0.00000000000000	0.00000000000000	
14.40328300000000	1.79503700000000	751.84705799999995	34.44986100000000	0.20763100000000	0.00000000000000	0.09345500000000	0.00000000000000	0.00000000000000	0.00000000000000	0.00000000000000	0.00000000000000	0.00000000000000	0.00000000000000	16.45811900000000	0.00000000000000	0.00000000000000	0.00000000000000	0.00000000000000	
14.40494800000000	1.25036000000000	753.79338299999995	34.49682700000000	0.20656600000000	0.00000000000000	0.09341400000000	0.00000000000000	0.00000000000000	0.00000000000000	0.00000000000000	0.00000000000000	0.00000000000000	0.00000000000000	16.55585100000000	0.00000000000000	0.00000000000000	0.00000000000000	0.00000000000000	
14.40661700000000	0.70662000000000	755.72949200000005	34.54806000000000	0.20551500000000	0.00000000000000	0.09337400000000	0.00000000000000	0.00000000000000	0.00000000000000	0.00000000000000	0.00000000000000	0.00000000000000	0.00000000000000	16.65410800000000	0.00000000000000	0.00000000000000	0.00000000000000	0.00000000000000	
